<?xml version="1.0" standalone="no"?>
<!DOCTYPE svg PUBLIC "-//W3C//DTD SVG 20010904//EN"
 "http://www.w3.org/TR/2001/REC-SVG-20010904/DTD/svg10.dtd">
<svg version="1.0" xmlns="http://www.w3.org/2000/svg"
 width="500.000000pt" height="500.000000pt" viewBox="0 0 500.000000 500.000000"
 preserveAspectRatio="xMidYMid meet">

<g transform="translate(0.000000,500.000000) scale(0.100000,-0.100000)"
fill="#000000" stroke="none">
<path d="M1727 3313 c-4 -3 -7 -35 -7 -70 0 -53 -3 -63 -17 -63 -10 0 -35 -5
-55 -10 l-37 -11 -3 -65 -3 -66 -52 -20 -53 -19 0 -668 0 -668 84 28 c142 47
245 63 411 63 159 -1 299 -23 408 -64 29 -11 58 -20 65 -20 9 0 12 139 12 664
l0 664 -62 57 c-150 135 -349 237 -519 264 -73 12 -162 14 -172 4z m233 -103
c47 -11 130 -43 186 -70 97 -47 260 -158 270 -183 2 -6 3 -270 2 -584 l-3
-573 -80 60 c-148 111 -329 188 -487 205 l-58 6 0 580 0 579 43 0 c23 0 80 -9
127 -20z m-137 -1233 c90 -5 247 -40 235 -52 -2 -3 -35 1 -73 7 -39 6 -121 8
-182 6 l-113 -5 0 577 c0 454 3 579 13 583 9 3 13 -113 15 -553 l2 -557 103
-6z m-213 408 c0 -462 2 -555 14 -555 7 0 38 5 67 10 69 13 267 14 299 1 20
-8 7 -10 -56 -10 -82 -1 -209 -20 -296 -46 -25 -7 -49 -11 -52 -8 -8 9 -8
1148 1 1156 3 4 10 7 15 7 4 0 8 -250 8 -555z m840 70 c0 -8 -4 -15 -10 -15
-5 0 -7 7 -4 15 4 8 8 15 10 15 2 0 4 -7 4 -15z"/>
<path d="M3080 3305 c-173 -35 -355 -132 -507 -269 l-53 -48 0 -664 c0 -524 3
-664 13 -664 6 0 45 11 85 25 242 82 559 80 806 -5 33 -11 63 -20 68 -20 4 0
8 299 8 664 l0 665 -52 19 -53 20 -5 68 -5 69 -52 9 -52 9 -3 66 -3 66 -65 2
c-36 1 -94 -4 -130 -12z m130 -485 c0 -223 0 -482 0 -577 l0 -172 -57 -6
c-158 -18 -335 -92 -477 -199 l-85 -64 -3 331 c-2 183 -2 445 0 584 l3 251 53
41 c167 129 393 224 519 218 l47 -2 0 -405z m100 189 c1 -43 1 -272 1 -509 0
-236 0 -460 -1 -498 l0 -67 -137 0 c-76 0 -160 -3 -188 -7 l-50 -7 33 15 c53
23 168 44 243 44 l69 0 0 560 c0 493 2 559 15 554 12 -5 15 -24 15 -85z m108
-658 c2 -553 1 -583 -15 -576 -62 23 -195 47 -297 52 -87 4 -113 9 -96 15 32
12 254 10 305 -2 83 -20 75 -78 75 546 0 440 3 555 13 552 9 -4 13 -132 15
-587z m-868 128 c-11 -38 -26 -55 -17 -19 4 14 7 31 7 38 0 6 4 12 9 12 6 0 6
-12 1 -31z"/>
</g>
</svg>
